<?xml version="1.0" encoding="UTF-8" standalone="no"?>
<!DOCTYPE svg PUBLIC "-//W3C//DTD SVG 1.1//EN" "http://www.w3.org/Graphics/SVG/1.1/DTD/svg11.dtd">
<svg width="100%" height="100%" viewBox="0 0 512 512" version="1.1" xmlns="http://www.w3.org/2000/svg" xmlns:xlink="http://www.w3.org/1999/xlink" xml:space="preserve" xmlns:serif="http://www.serif.com/" style="fill-rule:evenodd;clip-rule:evenodd;stroke-linejoin:round;stroke-miterlimit:2;">
    <path d="M201.917,248.269C187.588,195.139 173.678,155.243 158.004,127.11C146.706,106.83 132.949,86.823 121.821,76.443C110.302,65.699 91.147,63.309 85.469,68.987C73.954,80.502 76.711,90.558 68.653,96.652C63.766,100.347 58.193,102.108 48.674,102.581C39.115,103.055 20.984,102.088 20.589,88.668C20.277,78.044 27.153,64.741 40.819,49.051C54.239,33.643 77.611,18.439 117.333,18.439C176.535,18.439 236.999,38.899 264.686,105.933C268.95,116.256 276.417,140.819 283.81,166.885L407.916,43.55C426.217,25.362 455.842,25.454 474.03,43.756C492.218,62.057 492.125,91.682 473.824,109.87L311.086,271.597C314.334,283.662 317.46,294.395 320.693,306.886C360.563,460.964 407.368,450.563 411.149,450.563C417.254,450.563 422.135,448.131 426.413,443.853C441.205,429.062 438.438,415.551 449.559,411.9C463.062,407.466 480.512,412.04 483.955,413.629C488.566,415.757 490.694,419.075 490.694,423.332C490.694,443.791 476.339,459.285 464.389,469.742C452.527,480.121 437.776,493.561 393.233,493.561C330.525,493.561 286.48,476.888 269.126,450.376C257.999,433.376 244.315,397.058 230.437,351.745L108.962,472.465C90.661,490.653 61.036,490.561 42.848,472.259C24.66,453.958 24.753,424.333 43.054,406.145L201.917,248.269Z" style="fill:url(#_Linear1);"/>
    <defs>
        <linearGradient id="_Linear1" x1="0" y1="0" x2="1" y2="0" gradientUnits="userSpaceOnUse" gradientTransform="matrix(364.861468,447.467059,447.467059,-364.861468,76.008369,34.241778)"><stop offset="0" style="stop-color:rgb(223,73,81);stop-opacity:1"/><stop offset="0.27" style="stop-color:rgb(227,120,135);stop-opacity:1"/><stop offset="0.5" style="stop-color:rgb(214,173,180);stop-opacity:1"/><stop offset="1" style="stop-color:rgb(0,185,204);stop-opacity:1"/></linearGradient>
    </defs>
</svg>
